<svg width="290" height="127" viewBox="0 0 290 127" fill="none" xmlns="http://www.w3.org/2000/svg">
<mask id="mask0_91_7040" style="mask-type:alpha" maskUnits="userSpaceOnUse" x="0" y="0" width="290" height="127">
<rect width="290" height="127" fill="white"/>
</mask>
<g mask="url(#mask0_91_7040)">
<path opacity="0.0344828" d="M63.3971 -27.5683L196.443 -92.8278L196.849 -93.0266L196.663 -93.4381L135.747 -228.528L258.786 -145.937L259.161 -145.685L259.425 -146.051L345.958 -266.351L335.951 -118.5L335.921 -118.05L336.37 -118.005L483.819 -103.214L350.773 -37.955L350.368 -37.7562L350.554 -37.3446L411.47 97.7453L288.43 15.1538L288.055 14.9021L287.792 15.2687L201.258 135.568L211.265 -12.2826L211.296 -12.733L210.846 -12.7781L63.3971 -27.5683Z" stroke="#EBEBEB" stroke-width="0.932679"/>
<path opacity="0.0689655" d="M64.3329 -38.9527L198.918 -96.436L199.333 -96.6134L199.169 -97.0341L146.075 -233.41L263.15 -145.598L263.511 -145.327L263.794 -145.679L355.352 -259.848L337.841 -114.552L337.787 -114.104L338.233 -114.036L482.886 -91.8284L348.301 -34.3451L347.886 -34.1677L348.049 -33.747L401.144 102.629L284.069 14.8168L283.708 14.5459L283.425 14.8982L191.867 129.067L209.378 -16.2286L209.432 -16.6769L208.985 -16.7454L64.3329 -38.9527Z" stroke="#EBEBEB" stroke-width="0.932679"/>
<path opacity="0.103448" d="M65.8758 -50.1357L201.555 -99.8627L201.979 -100.018L201.838 -100.447L156.531 -237.666L267.436 -145.027L267.782 -144.738L268.083 -145.075L364.265 -252.921L339.49 -110.555L339.412 -110.111L339.854 -110.019L481.343 -80.6458L345.663 -30.9188L345.239 -30.7635L345.381 -30.3347L390.687 106.884L279.783 14.2458L279.436 13.9564L279.136 14.2933L182.954 122.139L207.729 -20.2261L207.806 -20.6709L207.364 -20.7627L65.8758 -50.1357Z" stroke="#EBEBEB" stroke-width="0.932679"/>
<path opacity="0.137931" d="M68.0079 -61.0853L204.344 -103.101L204.775 -103.234L204.656 -103.669L167.079 -241.294L271.633 -144.232L271.964 -143.925L272.281 -144.245L372.679 -245.601L340.898 -106.523L340.797 -106.083L341.234 -105.968L479.209 -69.6989L342.874 -27.6835L342.442 -27.5505L342.561 -27.115L380.139 110.51L275.585 13.4476L275.254 13.1404L274.936 13.4612L174.538 114.817L206.32 -24.2611L206.42 -24.7012L205.983 -24.816L68.0079 -61.0853Z" stroke="#EBEBEB" stroke-width="0.932679"/>
<path opacity="0.172414" d="M70.7102 -71.7665L207.272 -106.139L207.709 -106.25L207.613 -106.691L177.682 -244.294L275.73 -143.215L276.044 -142.891L276.379 -143.194L380.58 -237.918L342.068 -102.466L341.944 -102.031L342.374 -101.894L476.508 -59.014L339.946 -24.641L339.509 -24.5308L339.604 -24.0896L369.536 113.513L271.488 12.4343L271.173 12.1102L270.839 12.4139L166.638 107.137L205.15 -28.315L205.274 -28.7493L204.844 -28.8867L70.7102 -71.7665Z" stroke="#EBEBEB" stroke-width="0.932679"/>
<path opacity="0.206897" d="M73.9599 -82.1565L210.326 -108.98L210.769 -109.067L210.696 -109.512L188.303 -246.675L279.716 -141.991L280.013 -141.651L280.362 -141.937L387.953 -229.91L343 -98.4027L342.853 -97.9755L343.276 -97.8157L473.258 -48.6266L336.893 -21.8034L336.45 -21.7162L336.523 -21.2706L358.915 115.892L267.502 11.2078L267.206 10.8677L266.856 11.1535L159.266 99.1273L204.219 -32.3805L204.365 -32.8077L203.943 -32.9675L73.9599 -82.1565Z" stroke="#EBEBEB" stroke-width="0.932679"/>
<path opacity="0.241379" d="M77.7331 -92.2223L213.492 -111.612L213.939 -111.675L213.89 -112.124L198.908 -248.44L283.579 -140.564L283.858 -140.209L284.222 -140.476L394.784 -221.608L343.696 -94.343L343.528 -93.924L343.941 -93.7424L469.485 -38.5592L333.726 -19.17L333.279 -19.1061L333.328 -18.6574L348.31 117.658L263.639 9.78229L263.36 9.42715L262.996 9.69424L152.434 90.8269L203.522 -36.4385L203.69 -36.8575L203.277 -37.0392L77.7331 -92.2223Z" stroke="#EBEBEB" stroke-width="0.932679"/>
<path opacity="0.275862" d="M82.0056 -101.94L216.759 -114.033L217.208 -114.073L217.183 -114.524L209.46 -249.598L287.31 -138.945L287.57 -138.576L287.947 -138.824L401.064 -213.048L344.16 -90.302L343.97 -89.8924L344.373 -89.6894L465.212 -28.8399L330.459 -16.7469L330.009 -16.7066L330.035 -16.2558L337.757 118.818L259.907 8.16509L259.648 7.79584L259.27 8.04352L146.154 82.268L203.057 -40.478L203.247 -40.8876L202.844 -41.0907L82.0056 -101.94Z" stroke="#EBEBEB" stroke-width="0.932679"/>
<path opacity="0.310345" d="M86.7518 -111.287L220.112 -116.243L220.563 -116.26L220.561 -116.711L219.928 -250.162L290.9 -137.146L291.14 -136.764L291.53 -136.992L406.785 -204.266L344.396 -86.2945L344.185 -85.8954L344.577 -85.6715L460.466 -19.4947L327.105 -14.5391L326.654 -14.5224L326.656 -14.0709L327.29 119.38L256.318 6.3643L256.078 5.98197L255.688 6.20955L140.433 73.4837L202.821 -44.4876L203.033 -44.8867L202.64 -45.1106L86.7518 -111.287Z" stroke="#EBEBEB" stroke-width="0.932679"/>
<path opacity="0.344828" d="M91.9443 -120.239L223.539 -118.236L223.991 -118.229L224.012 -118.68L230.276 -250.142L294.339 -135.175L294.559 -134.781L294.96 -134.988L411.941 -195.294L344.409 -82.3304L344.178 -81.9429L344.557 -81.6988L455.274 -10.5434L323.679 -12.5462L323.228 -12.5531L323.206 -12.1021L316.942 119.359L252.879 4.39298L252.659 3.99861L252.258 4.20548L135.277 64.5113L202.809 -48.452L203.041 -48.8395L202.661 -49.0836L91.9443 -120.239Z" stroke="#EBEBEB" stroke-width="0.932679"/>
<path opacity="0.37931" d="M97.5542 -128.774L227.026 -120.011L227.477 -119.98L227.522 -120.429L240.473 -249.55L297.621 -133.042L297.82 -132.637L298.231 -132.823L416.528 -186.166L344.204 -78.4215L343.952 -78.0466L344.319 -77.783L449.664 -2.00629L320.192 -10.7691L319.742 -10.7996L319.697 -10.3504L306.745 118.77L249.598 2.26246L249.399 1.85712L248.987 2.04271L130.69 55.3864L203.015 -52.3584L203.266 -52.7332L202.9 -52.9968L97.5542 -128.774Z" stroke="#EBEBEB" stroke-width="0.932679"/>
<path opacity="0.413793" d="M103.553 -136.875L230.56 -121.569L231.008 -121.515L231.077 -121.961L250.489 -248.406L300.737 -130.761L300.914 -130.346L301.335 -130.51L420.545 -176.921L343.786 -74.5828L343.515 -74.2216L343.867 -73.9392L443.665 6.09455L316.658 -9.21188L316.21 -9.2659L316.142 -8.81965L296.729 117.625L246.482 -0.0195312L246.304 -0.434719L245.884 -0.270929L126.673 46.1401L203.433 -56.1981L203.703 -56.5593L203.351 -56.8417L103.553 -136.875Z" stroke="#EBEBEB" stroke-width="0.932679"/>
<path opacity="0.448276" d="M109.91 -144.526L234.128 -122.91L234.572 -122.832L234.664 -123.274L260.293 -246.726L303.681 -128.343L303.836 -127.919L304.265 -128.06L423.992 -167.591L343.163 -70.8242L342.873 -70.4777L343.21 -70.1772L437.308 13.7438L313.091 -7.87289L312.646 -7.9503L312.554 -7.50825L286.926 115.944L243.538 -2.43995L243.382 -2.86385L242.954 -2.7223L123.227 36.8086L204.056 -59.9583L204.346 -60.3048L204.009 -60.6053L109.91 -144.526Z" stroke="#EBEBEB" stroke-width="0.932679"/>
<path opacity="0.482759" d="M116.595 -151.709L237.715 -124.032L238.155 -123.931L238.27 -124.368L269.856 -244.528L306.447 -125.796L306.58 -125.364L307.015 -125.483L426.87 -158.209L342.34 -67.1547L342.033 -66.8238L342.354 -66.5061L430.622 20.9283L309.502 -6.74944L309.062 -6.85001L308.947 -6.41337L277.361 113.747L240.771 -4.98526L240.638 -5.41671L240.202 -5.29779L120.348 27.4277L204.877 -63.6263L205.184 -63.9572L204.864 -64.2749L116.595 -151.709Z" stroke="#EBEBEB" stroke-width="0.932679"/>
<path opacity="0.517241" d="M123.579 -158.414L241.312 -124.939L241.746 -124.815L241.884 -125.245L279.155 -241.833L309.031 -123.135L309.141 -122.697L309.582 -122.793L429.186 -148.81L341.329 -63.5871L341.005 -63.2727L341.308 -62.9387L423.641 27.6324L305.907 -5.84251L305.473 -5.96598L305.335 -5.53594L268.065 111.052L238.188 -7.64611L238.078 -8.08393L237.637 -7.98797L118.034 18.0284L205.891 -67.1943L206.215 -67.5086L205.911 -67.8427L123.579 -158.414Z" stroke="#EBEBEB" stroke-width="0.932679"/>
<path opacity="0.551724" d="M130.826 -164.628L244.903 -125.633L245.33 -125.487L245.49 -125.909L288.159 -238.664L311.427 -120.372L311.514 -119.929L311.96 -120.002L430.943 -139.427L340.134 -60.1303L339.793 -59.8333L340.079 -59.4838L416.393 33.846L302.316 -5.14887L301.888 -5.2949L301.729 -4.87265L259.059 107.882L235.791 -10.4095L235.704 -10.8525L235.258 -10.7798L116.276 8.64463L207.085 -70.6516L207.425 -70.9486L207.139 -71.2981L130.826 -164.628Z" stroke="#EBEBEB" stroke-width="0.932679"/>
<path opacity="0.586207" d="M138.306 -170.342L248.477 -126.116L248.896 -125.948L249.077 -126.362L296.848 -235.042L313.633 -117.519L313.697 -117.072L314.145 -117.121L432.151 -130.09L338.765 -56.7928L338.41 -56.5141L338.677 -56.1501L408.911 39.5606L298.741 -4.66493L298.322 -4.83312L298.14 -4.41981L250.37 104.26L233.585 -13.2628L233.521 -13.7097L233.072 -13.6604L115.067 -0.690911L208.453 -73.9886L208.808 -74.2673L208.541 -74.6313L138.306 -170.342Z" stroke="#EBEBEB" stroke-width="0.932679"/>
<path opacity="0.62069" d="M145.988 -175.55L252.022 -126.394L252.432 -126.204L252.635 -126.607L305.199 -230.993L315.646 -114.587L315.686 -114.137L316.137 -114.163L432.82 -120.834L337.233 -53.5839L336.864 -53.3241L337.111 -52.9466L401.23 44.7686L295.196 -4.38742L294.787 -4.57731L294.583 -4.17407L242.019 100.212L231.572 -16.1941L231.532 -16.6437L231.081 -16.618L114.398 -9.94731L209.985 -77.1971L210.355 -77.4569L210.107 -77.8344L145.988 -175.55Z" stroke="#EBEBEB" stroke-width="0.932679"/>
<path opacity="0.655172" d="M153.84 -180.246L255.527 -126.469L255.926 -126.258L256.15 -126.65L313.192 -226.542L317.464 -111.59L317.481 -111.139L317.932 -111.141L432.963 -111.687L335.547 -50.5118L335.164 -50.2717L335.392 -49.8818L393.38 49.4643L291.693 -4.31258L291.294 -4.52364L291.07 -4.13159L234.027 95.7606L229.756 -19.1917L229.739 -19.6428L229.288 -19.6407L114.257 -19.0946L211.673 -80.27L212.056 -80.5101L211.828 -80.9L153.84 -180.246Z" stroke="#EBEBEB" stroke-width="0.932679"/>
<path opacity="0.689655" d="M161.824 -184.433L258.977 -126.353L259.364 -126.121L259.608 -126.501L320.804 -221.721L319.082 -108.545L319.075 -108.094L319.526 -108.072L432.587 -102.685L333.712 -47.5884L333.318 -47.3686L333.525 -46.9673L385.39 53.6401L288.238 -4.43974L287.85 -4.6714L287.606 -4.2916L226.41 90.9287L228.132 -22.2477L228.139 -22.6991L227.688 -22.7206L114.627 -28.1079L213.502 -83.2044L213.896 -83.4241L213.689 -83.8254L161.824 -184.433Z" stroke="#EBEBEB" stroke-width="0.932679"/>
<path opacity="0.724138" d="M169.917 -188.098L262.367 -126.039L262.742 -125.788L263.006 -126.154L328.026 -216.546L320.507 -105.453L320.476 -105.002L320.925 -104.957L431.717 -93.8439L331.748 -44.8089L331.343 -44.6101L331.528 -44.1985L377.3 57.3063L284.849 -4.7519L284.475 -5.00353L284.211 -4.63702L219.191 85.7546L226.71 -25.3387L226.74 -25.7891L226.291 -25.8342L115.5 -36.9473L215.469 -85.9824L215.874 -86.1812L215.688 -86.5928L169.917 -188.098Z" stroke="#EBEBEB" stroke-width="0.932679"/>
<path opacity="0.758621" d="M178.081 -191.248L265.683 -125.542L266.044 -125.271L266.326 -125.623L334.836 -211.051L321.733 -102.332L321.679 -101.884L322.125 -101.815L430.363 -85.1984L329.658 -42.1861L329.243 -42.0087L329.407 -41.588L369.135 60.4565L281.533 -5.24975L281.172 -5.52065L280.889 -5.16844L212.38 80.2594L225.483 -28.4593L225.537 -28.9075L225.09 -28.976L116.853 -45.5928L217.557 -88.6052L217.973 -88.7825L217.809 -89.2032L178.081 -191.248Z" stroke="#EBEBEB" stroke-width="0.932679"/>
<path opacity="0.793103" d="M186.285 -193.885L268.914 -124.865L269.261 -124.576L269.561 -124.913L341.222 -205.263L322.763 -99.1939L322.686 -98.7491L323.128 -98.6573L428.543 -76.773L327.456 -39.724L327.032 -39.5686L327.173 -39.1399L360.929 63.0948L278.299 -5.92527L277.953 -6.2147L277.652 -5.87776L205.992 74.4727L224.451 -31.5964L224.528 -32.0412L224.086 -32.133L118.67 -54.0173L219.758 -91.0663L220.182 -91.2217L220.041 -91.6504L186.285 -193.885Z" stroke="#EBEBEB" stroke-width="0.932679"/>
<path opacity="0.827586" d="M194.502 -196.015L272.056 -124.019L272.387 -123.712L272.705 -124.032L347.176 -199.214L323.602 -96.0516L323.501 -95.6115L323.938 -95.4967L426.282 -68.5937L325.154 -37.4285L324.723 -37.2955L324.842 -36.86L352.715 65.2242L275.161 -6.77246L274.83 -7.07963L274.513 -6.75888L200.042 68.4223L223.616 -34.7396L223.716 -35.1797L223.28 -35.2945L120.936 -62.1975L222.063 -93.3627L222.495 -93.4957L222.376 -93.9312L194.502 -196.015Z" stroke="#EBEBEB" stroke-width="0.932679"/>
<path opacity="0.862069" d="M202.697 -197.643L275.094 -123.008L275.408 -122.684L275.743 -122.988L352.683 -192.93L324.246 -92.9147L324.122 -92.4805L324.552 -92.343L423.594 -60.6815L322.76 -35.3012L322.322 -35.191L322.418 -34.7498L344.519 66.8532L272.122 -7.78139L271.808 -8.10546L271.474 -7.80177L194.533 62.1398L222.97 -37.8751L223.094 -38.3094L222.664 -38.4468L123.622 -70.1083L224.456 -95.4886L224.894 -95.5988L224.798 -96.04L202.697 -197.643Z" stroke="#EBEBEB" stroke-width="0.932679"/>
<path opacity="0.896552" d="M210.841 -198.778L278.021 -121.845L278.318 -121.505L278.668 -121.79L357.737 -186.443L324.701 -89.7968L324.555 -89.3696L324.977 -89.2098L420.503 -53.0603L320.286 -33.3476L319.843 -33.2604L319.916 -32.8149L336.372 67.9876L269.192 -8.94612L268.895 -9.2862L268.546 -9.00041L189.476 55.6525L222.513 -40.994L222.659 -41.4212L222.237 -41.581L126.711 -77.7305L226.928 -97.4432L227.371 -97.5304L227.298 -97.976L210.841 -198.778Z" stroke="#EBEBEB" stroke-width="0.932679"/>
<path opacity="0.931035" d="M218.909 -199.429L280.833 -120.534L281.112 -120.179L281.476 -120.446L362.335 -179.782L324.972 -86.7069L324.804 -86.2879L325.217 -86.1062L417.034 -45.748L317.747 -31.5677L317.3 -31.5039L317.349 -31.0551L328.306 68.6394L266.382 -10.2558L266.103 -10.6109L265.739 -10.3438L184.88 48.9925L222.243 -44.083L222.411 -44.502L221.998 -44.6836L130.181 -85.0418L229.468 -99.2222L229.915 -99.286L229.866 -99.7348L218.909 -199.429Z" stroke="#EBEBEB" stroke-width="0.932679"/>
<path opacity="0.965517" d="M226.869 -199.609L283.52 -119.088L283.78 -118.719L284.157 -118.966L366.471 -172.979L325.063 -83.6576L324.873 -83.248L325.276 -83.0449L413.209 -38.7652L315.151 -29.9653L314.701 -29.925L314.727 -29.4742L320.346 68.8181L263.696 -11.7033L263.436 -12.0725L263.058 -11.8249L180.744 42.1877L222.153 -47.1336L222.343 -47.5432L221.939 -47.7462L134.006 -92.026L232.065 -100.826L232.515 -100.866L232.489 -101.317L226.869 -199.609Z" stroke="#EBEBEB" stroke-width="0.932679"/>
<path d="M234.696 -199.33L286.075 -117.514L286.315 -117.132L286.705 -117.359L370.142 -166.061L324.977 -80.6579L324.766 -80.2588L325.158 -80.0349L409.054 -32.1273L312.51 -28.5398L312.058 -28.523L312.06 -28.0716L312.519 68.538L261.14 -13.2778L260.9 -13.6602L260.51 -13.4326L177.073 35.2694L222.238 -50.134L222.449 -50.5331L222.057 -50.757L138.162 -98.6646L234.706 -102.252L235.157 -102.269L235.155 -102.72L234.696 -199.33Z" stroke="#EBEBEB" stroke-width="0.932679"/>
</g>
</svg>
